<svg xmlns="http://www.w3.org/2000/svg" viewBox="0 0 360 78" role="img" aria-labelledby="title desc">
  <title id="title">Brisbane Commercial Cleaning</title>
  <desc id="desc">A geometric BCC building and cleaning route mark with the Brisbane Commercial Cleaning wordmark.</desc>
  <defs>
    <linearGradient id="bccMark" x1="14" y1="10" x2="74" y2="68" gradientUnits="userSpaceOnUse">
      <stop stop-color="#0f766e"/>
      <stop offset="1" stop-color="#095a54"/>
    </linearGradient>
  </defs>
  <rect x="8" y="8" width="62" height="62" rx="8" fill="#101820"/>
  <path d="M23 56V22h17c8 0 13 4 13 10 0 4-2 7-6 8 5 1 8 5 8 10 0 7-6 11-15 11H23Zm10-21h7c3 0 5-2 5-4s-2-4-5-4h-7v8Zm0 17h8c3 0 5-2 5-5s-2-5-6-5h-7v10Z" fill="url(#bccMark)"/>
  <path d="M58 20c-7 6-10 14-8 24 2 9-1 16-9 21 15-5 22-14 21-27 0-7 3-13 9-18H58Z" fill="#d79a2b"/>
  <text x="88" y="34" fill="#ffffff" font-family="Manrope, Arial, sans-serif" font-size="27" font-weight="800">Brisbane</text>
  <text x="90" y="56" fill="#d79a2b" font-family="Manrope, Arial, sans-serif" font-size="11" font-weight="800" letter-spacing="1.3">COMMERCIAL CLEANING</text>
</svg>
